<svg width="360" height="725" viewBox="0 0 360 725" fill="none" xmlns="http://www.w3.org/2000/svg">
<path d="M-0.0922508 -0.592107L0.237671 723.673L361.099 723.508L360.769 -0.756489L-0.0922508 -0.592107Z" fill="#FFC6D1"/>
<path d="M-0.0922508 -0.592107L0.237671 723.673L361.099 723.508L360.769 -0.756489L-0.0922508 -0.592107Z" fill="url(#paint0_radial)"/>
<path d="M-0.0922508 -0.592107L0.237671 723.673L361.099 723.508L360.769 -0.756489L-0.0922508 -0.592107Z" fill="url(#paint1_radial)"/>
<path d="M-0.0922508 -0.592107L0.237671 723.673L361.099 723.508L360.769 -0.756489L-0.0922508 -0.592107Z" fill="url(#paint2_radial)"/>
<path d="M-0.0922508 -0.592107L0.237671 723.673L361.099 723.508L360.769 -0.756489L-0.0922508 -0.592107Z" fill="url(#paint3_radial)"/>
<path d="M-0.0922508 -0.592107L0.237671 723.673L361.099 723.508L360.769 -0.756489L-0.0922508 -0.592107Z" fill="url(#paint4_radial)"/>
<path d="M-1.24533 0.164271L-0.915405 724.429L359.54 724.265L359.21 7.37919e-05L-1.24533 0.164271Z" fill="url(#paint5_radial)"/>
<defs>
<radialGradient id="paint0_radial" cx="0" cy="0" r="1" gradientUnits="userSpaceOnUse" gradientTransform="translate(361.099 723.508) rotate(-90.0261) scale(482.843 360.861)">
<stop stop-color="#A0ADD7"/>
<stop offset="1" stop-color="#A0ADD7" stop-opacity="0"/>
</radialGradient>
<radialGradient id="paint1_radial" cx="0" cy="0" r="1" gradientUnits="userSpaceOnUse" gradientTransform="translate(360.769 -0.756489) rotate(-90.0261) scale(482.843 360.861)">
<stop stop-color="#E5C9CE"/>
<stop offset="1" stop-color="#E5C9CE" stop-opacity="0"/>
</radialGradient>
<radialGradient id="paint2_radial" cx="0" cy="0" r="1" gradientUnits="userSpaceOnUse" gradientTransform="translate(0.07271 361.54) rotate(-90.0261) scale(362.132 270.646)">
<stop stop-color="#86B0D4"/>
<stop offset="1" stop-color="#86B0D4" stop-opacity="0"/>
</radialGradient>
<radialGradient id="paint3_radial" cx="0" cy="0" r="1" gradientUnits="userSpaceOnUse" gradientTransform="translate(360.934 361.376) rotate(-90.0261) scale(362.132 270.646)">
<stop stop-color="#FFC6D1"/>
<stop offset="1" stop-color="#FFC6D1" stop-opacity="0"/>
</radialGradient>
<radialGradient id="paint4_radial" cx="0" cy="0" r="1" gradientUnits="userSpaceOnUse" gradientTransform="translate(0.237671 723.673) rotate(-90.0261) scale(482.843 360.861)">
<stop stop-color="#4094DC"/>
<stop offset="1" stop-color="#4094DC" stop-opacity="0"/>
</radialGradient>
<radialGradient id="paint5_radial" cx="0" cy="0" r="1" gradientUnits="userSpaceOnUse" gradientTransform="translate(-1.24533 0.164271) rotate(-90.0261) scale(482.843 360.456)">
<stop stop-color="#CBCBCB"/>
<stop offset="1" stop-color="#CBCBCB" stop-opacity="0"/>
</radialGradient>
</defs>
</svg>
