<svg width="208" height="201" viewBox="0 0 208 201" fill="none" xmlns="http://www.w3.org/2000/svg">
<path d="M106.375 11.4846H101.621V-6.86646e-05H106.375V11.4846Z" fill="#111111"/>
<path d="M106.375 11.4846H101.621V-6.86646e-05H106.375V11.4846Z" fill="#111111"/>
<path d="M106.375 201H101.621V189.515H106.375V201Z" fill="#111111"/>
<path d="M11.8864 102.799H0V98.203H11.8864V102.799Z" fill="#111111"/>
<path d="M11.8864 102.799H0V98.203H11.8864V102.799Z" fill="#111111"/>
<path d="M208 102.799H196.114V98.203H208V102.799Z" fill="#111111"/>
<path d="M37.1838 39.1816L28.7786 31.0611L32.141 27.8118L40.5462 35.9341L37.1838 39.1816Z" fill="#111111"/>
<path d="M37.1838 39.1816L28.7786 31.0611L32.141 27.8118L40.5462 35.9341L37.1838 39.1816Z" fill="#111111"/>
<path d="M175.859 173.189L167.452 165.067L170.814 161.819L179.221 169.942L175.859 173.189Z" fill="#111111"/>
<path d="M32.1417 173.189L28.7793 169.942L37.1845 161.819L40.5469 165.067L32.1417 173.189Z" fill="#111111"/>
<path d="M32.1417 173.189L28.7793 169.942L37.1845 161.819L40.5469 165.067L32.1417 173.189Z" fill="#111111"/>
<path d="M170.815 39.1816L167.453 35.9341L175.86 27.8118L179.222 31.0611L170.815 39.1816Z" fill="#111111"/>
<path d="M80.6909 14.3523L77.983 3.16798L82.6107 2.12199L85.3186 13.3063L80.6909 14.3523Z" fill="#111111"/>
<path d="M80.6909 14.3523L77.983 3.16798L82.6107 2.12199L85.3186 13.3063L80.6909 14.3523Z" fill="#111111"/>
<path d="M125.39 198.88L122.682 187.695L127.31 186.648L130.018 197.832L125.39 198.88Z" fill="#111111"/>
<path d="M3.27968 125.644L2.19543 121.17L13.7674 118.551L14.8517 123.025L3.27968 125.644Z" fill="#111111"/>
<path d="M3.27968 125.644L2.19543 121.17L13.7674 118.551L14.8517 123.025L3.27968 125.644Z" fill="#111111"/>
<path d="M194.233 82.4485L193.146 77.9748L204.72 75.358L205.805 79.8317L194.233 82.4485Z" fill="#111111"/>
<path d="M24.4814 55.5122L14.3831 49.4554L16.888 45.5523L26.9863 51.6092L24.4814 55.5122Z" fill="#111111"/>
<path d="M24.4814 55.5122L14.3831 49.4554L16.888 45.5523L26.9863 51.6092L24.4814 55.5122Z" fill="#111111"/>
<path d="M191.111 155.449L181.013 149.392L183.52 145.489L193.618 151.546L191.111 155.449Z" fill="#111111"/>
<path d="M51.1776 187.103L47.1387 184.681L53.4065 174.921L57.4454 177.345L51.1776 187.103Z" fill="#111111"/>
<path d="M51.1776 187.103L47.1387 184.681L53.4065 174.921L57.4454 177.345L51.1776 187.103Z" fill="#111111"/>
<path d="M154.594 26.0793L150.555 23.657L156.824 13.8967L160.863 16.3209L154.594 26.0793Z" fill="#111111"/>
<path d="M67.8113 18.6106L63.4268 7.93514L67.8478 6.2407L72.2305 16.9162L67.8113 18.6106Z" fill="#111111"/>
<path d="M67.8113 18.6106L63.4268 7.93514L67.8478 6.2407L72.2305 16.9162L67.8113 18.6106Z" fill="#111111"/>
<path d="M140.153 194.761L135.771 184.086L140.19 182.389L144.573 193.067L140.153 194.761Z" fill="#111111"/>
<path d="M8.21145 139.708L6.45618 135.438L17.5052 131.203L19.2587 135.472L8.21145 139.708Z" fill="#111111"/>
<path d="M8.21145 139.708L6.45618 135.438L17.5052 131.203L19.2587 135.472L8.21145 139.708Z" fill="#111111"/>
<path d="M190.496 69.7991L188.742 65.5285L199.789 61.2933L201.543 65.5621L190.496 69.7991Z" fill="#111111"/>
<path d="M18.489 67.324L7.57703 62.7707L9.46212 58.5532L20.3741 63.1064L18.489 67.324Z" fill="#111111"/>
<path d="M18.489 67.324L7.57703 62.7707L9.46212 58.5532L20.3741 63.1064L18.489 67.324Z" fill="#111111"/>
<path d="M198.537 142.447L187.625 137.894L189.51 133.676L200.42 138.229L198.537 142.447Z" fill="#111111"/>
<path d="M64.9562 193.677L60.5918 191.858L65.3018 181.313L69.668 183.133L64.9562 193.677Z" fill="#111111"/>
<path d="M64.9562 193.677L60.5918 191.858L65.3018 181.313L69.668 183.133L64.9562 193.677Z" fill="#111111"/>
<path d="M142.697 19.6887L138.331 17.8671L143.041 7.32236L147.407 9.14401L142.697 19.6887Z" fill="#111111"/>
<path d="M49.4489 28.7378L42.6619 19.308L46.5655 16.6842L53.3526 26.114L49.4489 28.7378Z" fill="#111111"/>
<path d="M49.4489 28.7378L42.6619 19.308L46.5655 16.6842L53.3526 26.114L49.4489 28.7378Z" fill="#111111"/>
<path d="M161.435 184.316L154.648 174.887L158.552 172.263L165.337 181.693L161.435 184.316Z" fill="#111111"/>
<path d="M19.9798 159.774L17.2665 156.002L27.0229 149.443L29.738 153.216L19.9798 159.774Z" fill="#111111"/>
<path d="M19.9798 159.774L17.2665 156.002L27.0229 149.443L29.738 153.216L19.9798 159.774Z" fill="#111111"/>
<path d="M180.976 51.5569L178.263 47.7864L188.021 41.226L190.735 44.9982L180.976 51.5569Z" fill="#111111"/>
<path d="M12.9149 87.0308L1.21863 85.0024L2.05787 80.4792L13.756 82.5093L12.9149 87.0308Z" fill="#111111"/>
<path d="M12.9149 87.0308L1.21863 85.0024L2.05787 80.4792L13.756 82.5093L12.9149 87.0308Z" fill="#111111"/>
<path d="M205.943 120.521L194.245 118.493L195.084 113.97L206.783 116L205.943 120.521Z" fill="#111111"/>
<path d="M87.9616 199.825L83.2809 199.014L85.3817 187.71L90.0606 188.521L87.9616 199.825Z" fill="#111111"/>
<path d="M87.9616 199.825L83.2809 199.014L85.3817 187.71L90.0606 188.521L87.9616 199.825Z" fill="#111111"/>
<path d="M122.617 13.293L117.938 12.482L120.039 1.17574L124.716 1.9885L122.617 13.293Z" fill="#111111"/>
</svg>
