<svg width="2077" height="1354" viewBox="0 0 2077 1354" fill="none" xmlns="http://www.w3.org/2000/svg">
<path d="M2098.05 -24H0V1353.16H2098.05V-24Z" fill="#FFC6D1"/>
<path d="M2098.05 -24H0V1353.16H2098.05V-24Z" fill="url(#paint0_radial)"/>
<path d="M2098.05 -24H0V1353.16H2098.05V-24Z" fill="url(#paint1_radial)"/>
<path d="M2098.05 -24H0V1353.16H2098.05V-24Z" fill="url(#paint2_radial)"/>
<path d="M2098.05 -24H0V1353.16H2098.05V-24Z" fill="url(#paint3_radial)"/>
<path d="M2098.05 -24H0V1353.16H2098.05V-24Z" fill="url(#paint4_radial)"/>
<path d="M2098.05 -24H0V1353.16H2098.05V-24Z" fill="url(#paint5_radial)"/>
<defs>
<radialGradient id="paint0_radial" cx="0" cy="0" r="1" gradientUnits="userSpaceOnUse" gradientTransform="translate(0 1353.16) scale(1398.7 1377.16)">
<stop stop-color="#A0ADD7"/>
<stop offset="1" stop-color="#A0ADD7" stop-opacity="0"/>
</radialGradient>
<radialGradient id="paint1_radial" cx="0" cy="0" r="1" gradientUnits="userSpaceOnUse" gradientTransform="translate(2098.05 1353.16) scale(1398.7 1377.16)">
<stop stop-color="#E5C9CE"/>
<stop offset="1" stop-color="#E5C9CE" stop-opacity="0"/>
</radialGradient>
<radialGradient id="paint2_radial" cx="0" cy="0" r="1" gradientUnits="userSpaceOnUse" gradientTransform="translate(1049.02 -24) scale(1049.02 1032.87)">
<stop stop-color="#86B0D4"/>
<stop offset="1" stop-color="#86B0D4" stop-opacity="0"/>
</radialGradient>
<radialGradient id="paint3_radial" cx="0" cy="0" r="1" gradientUnits="userSpaceOnUse" gradientTransform="translate(1049.02 1353.16) scale(1049.02 1032.87)">
<stop stop-color="#FFC6D1"/>
<stop offset="1" stop-color="#FFC6D1" stop-opacity="0"/>
</radialGradient>
<radialGradient id="paint4_radial" cx="0" cy="0" r="1" gradientUnits="userSpaceOnUse" gradientTransform="translate(0 -24) scale(1398.7 1377.16)">
<stop stop-color="#4094DC"/>
<stop offset="1" stop-color="#4094DC" stop-opacity="0"/>
</radialGradient>
<radialGradient id="paint5_radial" cx="0" cy="0" r="1" gradientUnits="userSpaceOnUse" gradientTransform="translate(2098.05 -24) scale(1398.7 1377.16)">
<stop stop-color="#CBCBCB"/>
<stop offset="1" stop-color="#CBCBCB" stop-opacity="0"/>
</radialGradient>
</defs>
</svg>
