<svg width="1440" height="792" viewBox="0 0 1440 792" fill="none" xmlns="http://www.w3.org/2000/svg">
<path d="M1440 0H0V779.558H1440V0Z" fill="#FFC6D1"/>
<path d="M1440 0H0V779.558H1440V0Z" fill="url(#paint0_radial)"/>
<path d="M1440 0H0V779.558H1440V0Z" fill="url(#paint1_radial)"/>
<path d="M1440 0H0V779.558H1440V0Z" fill="url(#paint2_radial)"/>
<path d="M1440 0H0V779.558H1440V0Z" fill="url(#paint3_radial)"/>
<path d="M1440 0H0V779.558H1440V0Z" fill="url(#paint4_radial)"/>
<path d="M1440 0H0V779.558H1440V0Z" fill="url(#paint5_radial)"/>
<path d="M1439.63 749.326L1359.65 728.253C1279.66 707.18 1119.69 665.035 959.73 658.032C799.77 651.292 639.82 679.034 479.86 672.294C319.899 665.29 159.928 623.145 79.9419 602.073L-0.0437215 581L0.0227909 791.981L80.0018 791.956C159.981 791.93 319.939 791.879 479.897 791.828C639.856 791.777 799.814 791.726 959.772 791.675C1119.73 791.624 1279.69 791.573 1359.67 791.547L1439.65 791.522L1439.63 749.326Z" fill="white"/>
<defs>
<radialGradient id="paint0_radial" cx="0" cy="0" r="1" gradientUnits="userSpaceOnUse" gradientTransform="translate(0 779.558) scale(960 779.558)">
<stop stop-color="#A0ADD7"/>
<stop offset="1" stop-color="#A0ADD7" stop-opacity="0"/>
</radialGradient>
<radialGradient id="paint1_radial" cx="0" cy="0" r="1" gradientUnits="userSpaceOnUse" gradientTransform="translate(1440 779.558) scale(960 779.558)">
<stop stop-color="#E5C9CE"/>
<stop offset="1" stop-color="#E5C9CE" stop-opacity="0"/>
</radialGradient>
<radialGradient id="paint2_radial" cx="0" cy="0" r="1" gradientUnits="userSpaceOnUse" gradientTransform="translate(720) scale(720 584.669)">
<stop stop-color="#86B0D4"/>
<stop offset="1" stop-color="#86B0D4" stop-opacity="0"/>
</radialGradient>
<radialGradient id="paint3_radial" cx="0" cy="0" r="1" gradientUnits="userSpaceOnUse" gradientTransform="translate(720 779.558) scale(720 584.669)">
<stop stop-color="#FFC6D1"/>
<stop offset="1" stop-color="#FFC6D1" stop-opacity="0"/>
</radialGradient>
<radialGradient id="paint4_radial" cx="0" cy="0" r="1" gradientUnits="userSpaceOnUse" gradientTransform="scale(960 779.558)">
<stop stop-color="#4094DC"/>
<stop offset="1" stop-color="#4094DC" stop-opacity="0"/>
</radialGradient>
<radialGradient id="paint5_radial" cx="0" cy="0" r="1" gradientUnits="userSpaceOnUse" gradientTransform="translate(1440) scale(960 779.558)">
<stop stop-color="#CBCBCB"/>
<stop offset="1" stop-color="#CBCBCB" stop-opacity="0"/>
</radialGradient>
</defs>
</svg>
