<svg width="24" height="24" viewBox="0 0 24 24" fill="none" xmlns="http://www.w3.org/2000/svg">
<path d="M20.9461 8.305C20.936 7.54762 20.7942 6.79777 20.5271 6.089C20.2954 5.49115 19.9416 4.9482 19.4883 4.49483C19.0349 4.04146 18.4919 3.68765 17.8941 3.456C17.1944 3.19336 16.4553 3.05134 15.7081 3.036C14.7461 2.993 14.4411 2.981 11.9991 2.981C9.55709 2.981 9.24409 2.981 8.28909 3.036C7.54225 3.05145 6.80344 3.19347 6.10409 3.456C5.50615 3.68749 4.96312 4.04124 4.50973 4.49463C4.05634 4.94802 3.70258 5.49106 3.47109 6.089C3.20792 6.78813 3.06622 7.52711 3.05209 8.274C3.00909 9.237 2.99609 9.542 2.99609 11.984C2.99609 14.426 2.99609 14.738 3.05209 15.694C3.06709 16.442 3.20809 17.18 3.47109 17.881C3.70297 18.4788 4.05699 19.0216 4.51053 19.4748C4.96407 19.928 5.50716 20.2816 6.10509 20.513C6.80253 20.7862 7.54147 20.9384 8.29009 20.963C9.25309 21.006 9.55809 21.019 12.0001 21.019C14.4421 21.019 14.7551 21.019 15.7101 20.963C16.4572 20.9483 17.1965 20.8066 17.8961 20.544C18.4938 20.3121 19.0366 19.9582 19.4899 19.5048C19.9433 19.0515 20.2972 18.5087 20.5291 17.911C20.7921 17.211 20.9331 16.473 20.9481 15.724C20.9911 14.762 21.0041 14.457 21.0041 12.014C21.0021 9.572 21.0021 9.262 20.9461 8.305V8.305ZM11.9931 16.602C9.43909 16.602 7.37009 14.533 7.37009 11.979C7.37009 9.425 9.43909 7.356 11.9931 7.356C13.2192 7.356 14.3951 7.84306 15.262 8.71004C16.129 9.57703 16.6161 10.7529 16.6161 11.979C16.6161 13.2051 16.129 14.381 15.262 15.248C14.3951 16.1149 13.2192 16.602 11.9931 16.602V16.602ZM16.8001 8.263C16.6585 8.26313 16.5183 8.23534 16.3874 8.18121C16.2566 8.12708 16.1377 8.04768 16.0375 7.94755C15.9374 7.84743 15.858 7.72854 15.8039 7.59769C15.7498 7.46684 15.722 7.3266 15.7221 7.185C15.7221 7.0435 15.75 6.90339 15.8041 6.77266C15.8583 6.64193 15.9376 6.52315 16.0377 6.42309C16.1377 6.32304 16.2565 6.24367 16.3873 6.18952C16.518 6.13537 16.6581 6.1075 16.7996 6.1075C16.9411 6.1075 17.0812 6.13537 17.2119 6.18952C17.3427 6.24367 17.4614 6.32304 17.5615 6.42309C17.6616 6.52315 17.7409 6.64193 17.7951 6.77266C17.8492 6.90339 17.8771 7.0435 17.8771 7.185C17.8771 7.781 17.3951 8.263 16.8001 8.263Z" fill="white"/>
<path d="M11.9932 14.982C13.6517 14.982 14.9962 13.6375 14.9962 11.979C14.9962 10.3205 13.6517 8.976 11.9932 8.976C10.3347 8.976 8.99023 10.3205 8.99023 11.979C8.99023 13.6375 10.3347 14.982 11.9932 14.982Z" fill="white"/>
</svg>
