<svg width="255" height="97" viewBox="0 0 255 97" fill="none" xmlns="http://www.w3.org/2000/svg">
<g clip-path="url(#clip0)">
<path d="M3.63208 94.7925L224.743 95.1592" stroke="#FE4066" stroke-width="5" stroke-linecap="round"/>
<path d="M8.2644 38.8779V93.3699" stroke="#FE4066" stroke-width="4" stroke-linecap="round"/>
<path d="M0.973389 47.332L35.6952 1.52814" stroke="#FE4066" stroke-width="3"/>
<path d="M68.1614 46.7004L35.1875 2.78737" stroke="#FE4066" stroke-width="3"/>
<path d="M83.9121 44.8708L50.9382 0.957768" stroke="#FE4066"/>
<path d="M76.397 45.0935L43.4231 1.18043" stroke="#FE4066" stroke-width="2"/>
<g filter="url(#filter0_i)">
<path d="M33.9914 22.8772H25.3574V33.9484H33.9914V22.8772Z" fill="#2B88D8"/>
</g>
<g filter="url(#filter1_i)">
<path d="M44.7842 36.0244H36.1501V47.0956H44.7842V36.0244Z" fill="#2B88D8"/>
</g>
<g filter="url(#filter2_i)">
<path d="M44.7842 22.8772H36.1501V33.9484H44.7842V22.8772Z" fill="#FE4066"/>
</g>
<g filter="url(#filter3_i)">
<path d="M33.9914 36.0244H25.3574V47.0956H33.9914V36.0244Z" fill="#FE4066"/>
</g>
<g filter="url(#filter4_d)">
<path d="M24.1294 59.6636L31.4977 78.6089L38.8265 59.6636H46.5888V85.7855H40.6588V78.6449L41.2498 66.3195L33.5072 85.7855H29.4488L21.7258 66.3375L22.3169 78.6449V85.7855H16.4065V59.6636H24.1294ZM63.7289 85.7855C63.4662 85.3188 63.2757 84.7383 63.1575 84.0446C61.7784 85.4445 59.9857 86.1441 57.7791 86.1441C55.6908 86.1441 53.957 85.5937 52.578 84.4936C51.2121 83.3928 50.5291 82.0054 50.5291 80.3314C50.5291 78.2738 51.363 76.6954 53.0311 75.5946C54.7123 74.4945 57.1355 73.9382 60.3009 73.9265H62.9211V72.8141C62.9211 71.917 62.665 71.1994 62.1528 70.6612C61.6537 70.1229 60.8591 69.8538 59.7689 69.8538C58.8101 69.8538 58.0549 70.0632 57.5033 70.4817C56.9648 70.9004 56.6955 71.4744 56.6955 72.2041H51.0019C51.0019 71.0797 51.3827 70.0392 52.1446 69.0824C52.9064 68.1255 53.9833 67.378 55.3756 66.8398C56.7678 66.2896 58.3308 66.0145 60.0644 66.0145C62.6913 66.0145 64.7731 66.6186 66.3098 67.8265C67.8595 69.0226 68.6345 70.709 68.6345 72.8858V81.2999C68.6476 83.1422 68.93 84.5355 69.4816 85.4798V85.7855H63.7289ZM59.0203 82.1788C59.8608 82.1788 60.6358 82.0113 61.345 81.6769C62.0542 81.3301 62.5797 80.8693 62.9211 80.2954V76.9585H60.7934C57.9433 76.9585 56.4263 77.8557 56.2424 79.6495L56.2227 79.9544C56.2227 80.6004 56.4722 81.1324 56.9714 81.5513C57.4705 81.9694 58.1534 82.1788 59.0203 82.1788ZM72.1216 75.9356C72.1216 72.9097 72.8637 70.4997 74.3478 68.7056C75.8451 66.9115 77.8875 66.0145 80.4749 66.0145C82.5497 66.0145 84.2645 66.7202 85.617 68.1315V58.2283H91.3303V85.7855H86.1883L85.9123 83.722C84.4937 85.3365 82.6683 86.1441 80.4355 86.1441C77.9269 86.1441 75.9108 85.2468 74.3872 83.4531C72.8768 81.6468 72.1216 79.141 72.1216 75.9356ZM77.8153 76.3125C77.8153 78.1305 78.1633 79.5238 78.8594 80.4923C79.5556 81.4616 80.5668 81.9459 81.8937 81.9459C83.6536 81.9459 84.8947 81.2698 85.617 79.9184V72.2579C84.9077 70.9063 83.6795 70.2306 81.9332 70.2306C79.1877 70.2306 77.8153 72.2579 77.8153 76.3125ZM105.555 86.1441C102.428 86.1441 99.8808 85.2711 97.9102 83.5243C95.9534 81.7783 94.9753 79.4518 94.9753 76.5455V76.0436C94.9753 74.094 95.3885 72.3535 96.2164 70.8226C97.0436 69.2797 98.2128 68.0957 99.7227 67.2704C101.246 66.4331 102.98 66.0145 104.924 66.0145C107.84 66.0145 110.132 66.8518 111.8 68.5262C113.481 70.2006 114.321 72.5748 114.321 75.649V77.7653H100.748C100.932 79.0337 101.483 80.05 102.403 80.8157C103.335 81.5807 104.51 81.9635 105.929 81.9635C108.122 81.9635 109.836 81.2404 111.071 79.7928L113.869 82.6455C113.015 83.7455 111.859 84.6068 110.401 85.2292C108.943 85.8391 107.327 86.1441 105.555 86.1441ZM104.904 70.2126C103.775 70.2126 102.855 70.5595 102.146 71.2532C101.45 71.9469 101.003 72.9396 100.806 74.2314H108.727V73.8185C108.7 72.6705 108.359 71.7854 107.702 71.1635C107.045 70.5296 106.113 70.2126 104.904 70.2126ZM129.117 80.4211C129.117 79.7869 128.769 79.2909 128.073 78.9315C127.39 78.5612 126.287 78.232 124.764 77.9454C119.693 76.9761 117.159 75.0148 117.159 72.0605C117.159 70.3382 117.94 68.903 119.503 67.7548C121.079 66.5946 123.134 66.0145 125.67 66.0145C128.375 66.0145 130.536 66.5946 132.151 67.7548C133.78 68.915 134.594 70.4219 134.594 72.2758H128.901C128.901 71.5342 128.638 70.9243 128.112 70.4459C127.587 69.9555 126.766 69.7103 125.65 69.7103C124.691 69.7103 123.949 69.9077 123.424 70.3023C122.898 70.697 122.636 71.1994 122.636 71.8094C122.636 72.3834 122.931 72.8499 123.522 73.2087C124.126 73.5554 125.138 73.8603 126.556 74.1234C127.974 74.3747 129.17 74.6621 130.142 74.9847C133.149 75.9892 134.654 77.7301 134.654 80.2058C134.654 81.976 133.819 83.4112 132.151 84.5112C130.483 85.5995 128.329 86.1441 125.689 86.1441C123.903 86.1441 122.314 85.8567 120.922 85.2828C119.542 84.6964 118.459 83.9013 117.671 82.8968C116.883 81.8797 116.489 80.7855 116.489 79.6135H121.887C121.939 80.5342 122.314 81.2404 123.01 81.7306C123.706 82.2207 124.638 82.4662 125.808 82.4662C126.898 82.4662 127.719 82.281 128.27 81.9099C128.835 81.527 129.117 81.031 129.117 80.4211ZM145.154 61.6012V66.3733H148.799V70.1768H145.154V79.8648C145.154 80.582 145.305 81.0964 145.607 81.4072C145.909 81.7188 146.487 81.8739 147.341 81.8739C147.971 81.8739 148.529 81.832 149.015 81.7482V85.6774C147.899 85.9883 146.75 86.1441 145.568 86.1441C141.575 86.1441 139.539 84.3077 139.461 80.6364V70.1768H136.347V66.3733H139.461V61.6012H145.154ZM163.949 71.2352C163.174 71.1396 162.491 71.0917 161.9 71.0917C159.746 71.0917 158.334 71.7555 157.664 73.0832V85.7855H151.971V66.3733H157.349L157.507 68.6877C158.649 66.9056 160.232 66.0145 162.255 66.0145C162.885 66.0145 163.476 66.0923 164.028 66.2477L163.949 71.2352ZM179.474 83.8117C178.068 85.3666 176.124 86.1441 173.642 86.1441C171.357 86.1441 169.61 85.5459 168.402 84.3496C167.206 83.154 166.596 81.4014 166.569 79.0932V66.3733H172.263V78.9139C172.263 80.9355 173.274 81.9459 175.297 81.9459C177.227 81.9459 178.554 81.336 179.276 80.1161V66.3733H184.99V85.7855H179.631L179.474 83.8117ZM198.15 81.9635C199.201 81.9635 200.055 81.7004 200.712 81.1743C201.368 80.6481 201.71 79.9486 201.736 79.0756H207.075C207.062 80.3909 206.668 81.599 205.893 82.6991C205.118 83.7874 204.054 84.6369 202.702 85.2468C201.362 85.845 199.877 86.1441 198.249 86.1441C195.202 86.1441 192.798 85.2652 191.039 83.5067C189.279 81.7364 188.398 79.2967 188.398 76.1869V75.8459C188.398 72.8559 189.271 70.4698 191.018 68.6877C192.765 66.9056 195.162 66.0145 198.209 66.0145C200.875 66.0145 203.01 66.7082 204.612 68.0957C206.228 69.4711 207.049 71.307 207.075 73.6031H201.736C201.71 72.5988 201.368 71.7854 200.712 71.1635C200.055 70.5296 199.188 70.2126 198.111 70.2126C196.784 70.2126 195.779 70.6551 195.097 71.5403C194.427 72.4133 194.092 73.8368 194.092 75.8099V76.3485C194.092 78.3459 194.427 79.781 195.097 80.654C195.766 81.527 196.784 81.9635 198.15 81.9635ZM217.142 61.6012V66.3733H220.787V70.1768H217.142V79.8648C217.142 80.582 217.293 81.0964 217.596 81.4072C217.897 81.7188 218.475 81.8739 219.329 81.8739C219.959 81.8739 220.518 81.832 221.003 81.7482V85.6774C219.887 85.9883 218.738 86.1441 217.556 86.1441C213.563 86.1441 211.527 84.3077 211.449 80.6364V70.1768H208.336V66.3733H211.449V61.6012H217.142Z" fill="black"/>
</g>
</g>
<defs>
<filter id="filter0_i" x="25.3574" y="22.8772" width="8.634" height="11.0712" filterUnits="userSpaceOnUse" color-interpolation-filters="sRGB">
<feFlood flood-opacity="0" result="BackgroundImageFix"/>
<feBlend mode="normal" in="SourceGraphic" in2="BackgroundImageFix" result="shape"/>
<feColorMatrix in="SourceAlpha" type="matrix" values="0 0 0 0 0 0 0 0 0 0 0 0 0 0 0 0 0 0 127 0" result="hardAlpha"/>
<feOffset/>
<feGaussianBlur stdDeviation="2.5"/>
<feComposite in2="hardAlpha" operator="arithmetic" k2="-1" k3="1"/>
<feColorMatrix type="matrix" values="0 0 0 0 0.168627 0 0 0 0 0.533333 0 0 0 0 0.847059 0 0 0 1 0"/>
<feBlend mode="normal" in2="shape" result="effect1_innerShadow"/>
</filter>
<filter id="filter1_i" x="36.1501" y="36.0244" width="8.63401" height="11.0712" filterUnits="userSpaceOnUse" color-interpolation-filters="sRGB">
<feFlood flood-opacity="0" result="BackgroundImageFix"/>
<feBlend mode="normal" in="SourceGraphic" in2="BackgroundImageFix" result="shape"/>
<feColorMatrix in="SourceAlpha" type="matrix" values="0 0 0 0 0 0 0 0 0 0 0 0 0 0 0 0 0 0 127 0" result="hardAlpha"/>
<feOffset/>
<feGaussianBlur stdDeviation="2.5"/>
<feComposite in2="hardAlpha" operator="arithmetic" k2="-1" k3="1"/>
<feColorMatrix type="matrix" values="0 0 0 0 0.168627 0 0 0 0 0.533333 0 0 0 0 0.847059 0 0 0 1 0"/>
<feBlend mode="normal" in2="shape" result="effect1_innerShadow"/>
</filter>
<filter id="filter2_i" x="36.1501" y="22.8772" width="8.63401" height="11.0712" filterUnits="userSpaceOnUse" color-interpolation-filters="sRGB">
<feFlood flood-opacity="0" result="BackgroundImageFix"/>
<feBlend mode="normal" in="SourceGraphic" in2="BackgroundImageFix" result="shape"/>
<feColorMatrix in="SourceAlpha" type="matrix" values="0 0 0 0 0 0 0 0 0 0 0 0 0 0 0 0 0 0 127 0" result="hardAlpha"/>
<feOffset/>
<feGaussianBlur stdDeviation="2"/>
<feComposite in2="hardAlpha" operator="arithmetic" k2="-1" k3="1"/>
<feColorMatrix type="matrix" values="0 0 0 0 0.996078 0 0 0 0 0.25098 0 0 0 0 0.4 0 0 0 1 0"/>
<feBlend mode="normal" in2="shape" result="effect1_innerShadow"/>
</filter>
<filter id="filter3_i" x="25.3574" y="36.0244" width="8.634" height="11.0712" filterUnits="userSpaceOnUse" color-interpolation-filters="sRGB">
<feFlood flood-opacity="0" result="BackgroundImageFix"/>
<feBlend mode="normal" in="SourceGraphic" in2="BackgroundImageFix" result="shape"/>
<feColorMatrix in="SourceAlpha" type="matrix" values="0 0 0 0 0 0 0 0 0 0 0 0 0 0 0 0 0 0 127 0" result="hardAlpha"/>
<feOffset/>
<feGaussianBlur stdDeviation="2"/>
<feComposite in2="hardAlpha" operator="arithmetic" k2="-1" k3="1"/>
<feColorMatrix type="matrix" values="0 0 0 0 0.996078 0 0 0 0 0.25098 0 0 0 0 0.4 0 0 0 1 0"/>
<feBlend mode="normal" in2="shape" result="effect1_innerShadow"/>
</filter>
<filter id="filter4_d" x="12.4065" y="58.2283" width="212.597" height="35.9158" filterUnits="userSpaceOnUse" color-interpolation-filters="sRGB">
<feFlood flood-opacity="0" result="BackgroundImageFix"/>
<feColorMatrix in="SourceAlpha" type="matrix" values="0 0 0 0 0 0 0 0 0 0 0 0 0 0 0 0 0 0 127 0" result="hardAlpha"/>
<feOffset dy="4"/>
<feGaussianBlur stdDeviation="2"/>
<feComposite in2="hardAlpha" operator="out"/>
<feColorMatrix type="matrix" values="0 0 0 0 0 0 0 0 0 0 0 0 0 0 0 0 0 0 0.25 0"/>
<feBlend mode="normal" in2="BackgroundImageFix" result="effect1_dropShadow"/>
<feBlend mode="normal" in="SourceGraphic" in2="effect1_dropShadow" result="shape"/>
</filter>
<clipPath id="clip0">
<rect width="255" height="97" fill="white"/>
</clipPath>
</defs>
</svg>
