<svg width="316" height="132" viewBox="0 0 316 132" fill="none" xmlns="http://www.w3.org/2000/svg">
<line x1="4.50089" y1="128.996" x2="278.505" y2="129.495" stroke="#FE4066" stroke-width="5" stroke-linecap="round"/>
<line x1="10.2413" y1="52.906" x2="10.2413" y2="127.06" stroke="#FE4066" stroke-width="4" stroke-linecap="round"/>
<line y1="-1.5" x2="75.74" y2="-1.5" transform="matrix(0.568098 -0.822961 0.613505 0.789691 2.12645 65.595)" stroke="#FE4066" stroke-width="3"/>
<line y1="-1.5" x2="72.3927" y2="-1.5" transform="matrix(-0.564446 -0.82547 0.795153 -0.606408 85.6595 62.6414)" stroke="#FE4066" stroke-width="3"/>
<line y1="-0.5" x2="72.3927" y2="-0.5" transform="matrix(-0.564446 -0.82547 0.795153 -0.606408 104.383 60.7581)" stroke="#FE4066"/>
<line y1="-1" x2="72.3927" y2="-1" transform="matrix(-0.564446 -0.82547 0.795153 -0.606408 95.4673 60.7581)" stroke="#FE4066" stroke-width="2"/>
<g filter="url(#filter0_d)">
<rect x="31.4234" y="31.1318" width="10.6994" height="15.0659" fill="#2B88D8"/>
</g>
<g filter="url(#filter1_d)">
<rect x="44.7977" y="49.0229" width="10.6994" height="15.0659" fill="#2B88D8"/>
</g>
<g filter="url(#filter2_d)">
<rect x="44.7977" y="31.1318" width="10.6994" height="15.0659" fill="#FE4066"/>
</g>
<g filter="url(#filter3_d)">
<rect x="31.4234" y="49.0229" width="10.6994" height="15.0659" fill="#FE4066"/>
</g>
<g filter="url(#filter4_d)">
<path d="M29.9017 81.1917L39.0325 106.973L48.1145 81.1917H57.7337V116.739H50.3851V107.022L51.1175 90.2493L41.5228 116.739H36.4935L26.9231 90.2737L27.6556 107.022V116.739H20.3313V81.1917H29.9017ZM78.9739 116.739C78.6484 116.104 78.4124 115.314 78.2659 114.37C76.5569 116.275 74.3353 117.227 71.6009 117.227C69.013 117.227 66.8645 116.478 65.1556 114.981C63.4629 113.483 62.6165 111.595 62.6165 109.317C62.6165 106.517 63.65 104.369 65.7171 102.871C67.8004 101.374 70.8033 100.617 74.7259 100.601H77.9729V99.0872C77.9729 97.8665 77.6556 96.8899 77.0208 96.1575C76.4023 95.425 75.4176 95.0588 74.0667 95.0588C72.8785 95.0588 71.9427 95.3437 71.2591 95.9133C70.5918 96.483 70.2581 97.2642 70.2581 98.2571H63.2024C63.2024 96.7271 63.6744 95.3111 64.6185 94.009C65.5625 92.7069 66.8971 91.6897 68.6224 90.9573C70.3476 90.2086 72.2845 89.8342 74.4329 89.8342C77.6881 89.8342 80.2679 90.6562 82.1722 92.3C84.0927 93.9277 85.053 96.2226 85.053 99.1848V110.635C85.0693 113.142 85.4192 115.038 86.1028 116.323V116.739H78.9739ZM73.139 111.831C74.1806 111.831 75.1409 111.603 76.0198 111.148C76.8987 110.676 77.5498 110.049 77.9729 109.268V104.727H75.3362C71.8043 104.727 69.9244 105.948 69.6966 108.389L69.6722 108.804C69.6722 109.683 69.9814 110.407 70.5999 110.977C71.2184 111.546 72.0647 111.831 73.139 111.831ZM89.3743 103.335C89.3743 99.2174 90.2939 95.9377 92.1331 93.4963C93.9886 91.0549 96.5195 89.8342 99.7259 89.8342C102.297 89.8342 104.422 90.7945 106.098 92.7151V79.2385H113.178V116.739H106.806L106.464 113.931C104.706 116.128 102.444 117.227 99.677 117.227C96.5683 117.227 94.07 116.006 92.1819 113.565C90.3102 111.107 89.3743 107.697 89.3743 103.335ZM96.43 103.848C96.43 106.322 96.8613 108.218 97.7239 109.536C98.5866 110.855 99.8398 111.514 101.484 111.514C103.665 111.514 105.203 110.594 106.098 108.755V98.3303C105.219 96.4911 103.697 95.5715 101.533 95.5715C98.1308 95.5715 96.43 98.3303 96.43 103.848ZM130.805 117.227C126.931 117.227 123.774 116.039 121.332 113.662C118.907 111.286 117.695 108.12 117.695 104.165V103.482C117.695 100.829 118.207 98.4605 119.233 96.3772C120.258 94.2776 121.707 92.6663 123.578 91.5432C125.466 90.4039 127.615 89.8342 130.024 89.8342C133.637 89.8342 136.477 90.9736 138.544 93.2522C140.628 95.5308 141.669 98.7616 141.669 102.945V105.825H124.848C125.076 107.551 125.759 108.934 126.899 109.976C128.054 111.017 129.511 111.538 131.269 111.538C133.987 111.538 136.111 110.554 137.641 108.584L141.108 112.466C140.05 113.963 138.617 115.135 136.811 115.982C135.004 116.812 133.002 117.227 130.805 117.227ZM129.999 95.5471C128.6 95.5471 127.46 96.0191 126.581 96.9631C125.719 97.9071 125.165 99.2581 124.921 101.016H134.736V100.454C134.703 98.8918 134.28 97.6874 133.466 96.8411C132.652 95.9784 131.497 95.5471 129.999 95.5471ZM160.004 109.439C160.004 108.576 159.573 107.901 158.71 107.412C157.864 106.908 156.497 106.46 154.609 106.07C148.326 104.751 145.185 102.082 145.185 98.0618C145.185 95.718 146.153 93.7649 148.09 92.2024C150.043 90.6236 152.59 89.8342 155.732 89.8342C159.085 89.8342 161.762 90.6236 163.764 92.2024C165.782 93.7812 166.791 95.8319 166.791 98.3547H159.736C159.736 97.3456 159.41 96.5155 158.759 95.8645C158.108 95.1972 157.091 94.8635 155.707 94.8635C154.519 94.8635 153.6 95.1321 152.949 95.6692C152.297 96.2063 151.972 96.8899 151.972 97.72C151.972 98.5012 152.338 99.136 153.071 99.6243C153.819 100.096 155.073 100.511 156.83 100.869C158.588 101.211 160.069 101.602 161.274 102.041C165.001 103.408 166.865 105.777 166.865 109.146C166.865 111.555 165.831 113.508 163.764 115.005C161.697 116.486 159.028 117.227 155.756 117.227C153.543 117.227 151.573 116.836 149.848 116.055C148.139 115.257 146.796 114.175 145.82 112.808C144.843 111.424 144.355 109.935 144.355 108.34H151.044C151.109 109.593 151.573 110.554 152.436 111.221C153.298 111.888 154.454 112.222 155.903 112.222C157.254 112.222 158.271 111.97 158.954 111.465C159.654 110.944 160.004 110.269 160.004 109.439ZM179.877 83.8284V90.3225H184.394V95.4983H179.877V108.682C179.877 109.658 180.064 110.358 180.439 110.781C180.813 111.205 181.529 111.416 182.587 111.416C183.368 111.416 184.06 111.359 184.662 111.245V116.592C183.279 117.015 181.855 117.227 180.39 117.227C175.442 117.227 172.919 114.728 172.822 109.732V95.4983H168.964V90.3225H172.822V83.8284H179.877ZM203.168 96.9387C202.208 96.8085 201.362 96.7434 200.629 96.7434C197.96 96.7434 196.21 97.6467 195.38 99.4534V116.739H188.325V90.3225H194.99L195.185 93.4719C196.601 91.0468 198.562 89.8342 201.069 89.8342C201.85 89.8342 202.582 89.94 203.266 90.1516L203.168 96.9387ZM222.407 114.053C220.665 116.169 218.256 117.227 215.18 117.227C212.348 117.227 210.183 116.413 208.686 114.785C207.205 113.158 206.448 110.773 206.415 107.632V90.3225H213.471V107.388C213.471 110.139 214.724 111.514 217.231 111.514C219.623 111.514 221.267 110.684 222.162 109.024V90.3225H229.242V116.739H222.602L222.407 114.053ZM245.551 111.538C246.853 111.538 247.911 111.18 248.725 110.464C249.539 109.748 249.962 108.796 249.994 107.608H256.611C256.594 109.398 256.106 111.042 255.146 112.539C254.186 114.02 252.867 115.176 251.191 116.006C249.531 116.82 247.691 117.227 245.673 117.227C241.897 117.227 238.919 116.031 236.738 113.638C234.557 111.229 233.466 107.909 233.466 103.677V103.213C233.466 99.1441 234.548 95.8971 236.713 93.4719C238.878 91.0468 241.848 89.8342 245.624 89.8342C248.928 89.8342 251.573 90.7782 253.559 92.6663C255.561 94.538 256.578 97.0364 256.611 100.161H249.994C249.962 98.7942 249.539 97.6874 248.725 96.8411C247.911 95.9784 246.837 95.5471 245.502 95.5471C243.858 95.5471 242.613 96.1493 241.767 97.3538C240.937 98.5419 240.522 100.479 240.522 103.164V103.897C240.522 106.615 240.937 108.568 241.767 109.756C242.597 110.944 243.858 111.538 245.551 111.538ZM269.086 83.8284V90.3225H273.603V95.4983H269.086V108.682C269.086 109.658 269.273 110.358 269.648 110.781C270.022 111.205 270.738 111.416 271.796 111.416C272.577 111.416 273.269 111.359 273.871 111.245V116.592C272.488 117.015 271.064 117.227 269.599 117.227C264.651 117.227 262.128 114.728 262.031 109.732V95.4983H258.173V90.3225H262.031V83.8284H269.086Z" fill="black"/>
</g>
<defs>
<filter id="filter0_d" x="26.4234" y="26.1318" width="20.6994" height="25.0659" filterUnits="userSpaceOnUse" color-interpolation-filters="sRGB">
<feFlood flood-opacity="0" result="BackgroundImageFix"/>
<feColorMatrix in="SourceAlpha" type="matrix" values="0 0 0 0 0 0 0 0 0 0 0 0 0 0 0 0 0 0 127 0" result="hardAlpha"/>
<feOffset/>
<feGaussianBlur stdDeviation="2.5"/>
<feComposite in2="hardAlpha" operator="out"/>
<feColorMatrix type="matrix" values="0 0 0 0 0.168627 0 0 0 0 0.533333 0 0 0 0 0.847059 0 0 0 1 0"/>
<feBlend mode="normal" in2="BackgroundImageFix" result="effect1_dropShadow"/>
<feBlend mode="normal" in="SourceGraphic" in2="effect1_dropShadow" result="shape"/>
</filter>
<filter id="filter1_d" x="39.7977" y="44.0229" width="20.6994" height="25.0659" filterUnits="userSpaceOnUse" color-interpolation-filters="sRGB">
<feFlood flood-opacity="0" result="BackgroundImageFix"/>
<feColorMatrix in="SourceAlpha" type="matrix" values="0 0 0 0 0 0 0 0 0 0 0 0 0 0 0 0 0 0 127 0" result="hardAlpha"/>
<feOffset/>
<feGaussianBlur stdDeviation="2.5"/>
<feComposite in2="hardAlpha" operator="out"/>
<feColorMatrix type="matrix" values="0 0 0 0 0.168627 0 0 0 0 0.533333 0 0 0 0 0.847059 0 0 0 1 0"/>
<feBlend mode="normal" in2="BackgroundImageFix" result="effect1_dropShadow"/>
<feBlend mode="normal" in="SourceGraphic" in2="effect1_dropShadow" result="shape"/>
</filter>
<filter id="filter2_d" x="40.7977" y="27.1318" width="18.6994" height="23.0659" filterUnits="userSpaceOnUse" color-interpolation-filters="sRGB">
<feFlood flood-opacity="0" result="BackgroundImageFix"/>
<feColorMatrix in="SourceAlpha" type="matrix" values="0 0 0 0 0 0 0 0 0 0 0 0 0 0 0 0 0 0 127 0" result="hardAlpha"/>
<feOffset/>
<feGaussianBlur stdDeviation="2"/>
<feComposite in2="hardAlpha" operator="out"/>
<feColorMatrix type="matrix" values="0 0 0 0 0.996078 0 0 0 0 0.25098 0 0 0 0 0.4 0 0 0 1 0"/>
<feBlend mode="normal" in2="BackgroundImageFix" result="effect1_dropShadow"/>
<feBlend mode="normal" in="SourceGraphic" in2="effect1_dropShadow" result="shape"/>
</filter>
<filter id="filter3_d" x="27.4234" y="45.0229" width="18.6994" height="23.0659" filterUnits="userSpaceOnUse" color-interpolation-filters="sRGB">
<feFlood flood-opacity="0" result="BackgroundImageFix"/>
<feColorMatrix in="SourceAlpha" type="matrix" values="0 0 0 0 0 0 0 0 0 0 0 0 0 0 0 0 0 0 127 0" result="hardAlpha"/>
<feOffset/>
<feGaussianBlur stdDeviation="2"/>
<feComposite in2="hardAlpha" operator="out"/>
<feColorMatrix type="matrix" values="0 0 0 0 0.996078 0 0 0 0 0.25098 0 0 0 0 0.4 0 0 0 1 0"/>
<feBlend mode="normal" in2="BackgroundImageFix" result="effect1_dropShadow"/>
<feBlend mode="normal" in="SourceGraphic" in2="effect1_dropShadow" result="shape"/>
</filter>
<filter id="filter4_d" x="16.3313" y="79.2385" width="261.54" height="45.9883" filterUnits="userSpaceOnUse" color-interpolation-filters="sRGB">
<feFlood flood-opacity="0" result="BackgroundImageFix"/>
<feColorMatrix in="SourceAlpha" type="matrix" values="0 0 0 0 0 0 0 0 0 0 0 0 0 0 0 0 0 0 127 0" result="hardAlpha"/>
<feOffset dy="4"/>
<feGaussianBlur stdDeviation="2"/>
<feComposite in2="hardAlpha" operator="out"/>
<feColorMatrix type="matrix" values="0 0 0 0 0 0 0 0 0 0 0 0 0 0 0 0 0 0 0.45 0"/>
<feBlend mode="normal" in2="BackgroundImageFix" result="effect1_dropShadow"/>
<feBlend mode="normal" in="SourceGraphic" in2="effect1_dropShadow" result="shape"/>
</filter>
</defs>
</svg>
