<svg width="2078" height="538" viewBox="0 0 2078 538" fill="none" xmlns="http://www.w3.org/2000/svg">
<path d="M28.2219 38.4147L158.956 398.311L283.194 36.3615L417.858 35.2771L421.865 532.917L318.987 533.746L317.892 397.715L326.255 162.826L194.919 534.745L124.511 535.312L-12.4522 165.895L-0.310546 400.277L0.784854 536.308L-101.751 537.134L-105.758 39.4936L28.2219 38.4147ZM782.217 530.015C777.588 521.166 774.195 510.141 772.038 496.942C748.327 523.794 717.332 537.374 679.052 537.682C642.823 537.974 612.661 527.735 588.568 506.965C564.702 486.193 552.64 459.857 552.383 427.957C552.068 388.765 566.295 358.572 595.064 337.376C624.06 316.178 666.015 305.244 720.927 304.574L766.384 304.208L766.213 283.017C766.076 265.928 761.523 252.292 752.554 242.11C743.812 231.926 729.986 226.911 711.074 227.063C694.44 227.197 681.37 231.29 671.865 239.342C662.587 247.392 658.004 258.367 658.116 272.266L559.339 273.062C559.167 251.643 565.615 231.766 578.684 213.431C591.753 195.096 610.323 180.705 634.393 170.257C658.461 159.581 685.534 154.122 715.611 153.879C761.183 153.513 797.391 164.728 824.235 187.527C851.306 210.097 865.008 242.116 865.342 283.586L866.633 443.884C867.144 478.972 872.256 505.478 881.971 523.401L882.018 529.212L782.217 530.015ZM699.977 461.974C714.559 461.857 727.977 458.559 740.23 452.08C752.481 445.373 761.525 436.527 767.361 425.542L766.849 361.97L729.936 362.267C680.491 362.665 654.311 379.966 651.397 414.171L651.102 419.984C651.201 432.288 655.612 442.393 664.334 450.298C673.057 458.203 684.938 462.095 699.977 461.974ZM989.304 340.695C988.84 283.047 1001.34 237.031 1026.82 202.645C1052.52 168.257 1087.81 150.882 1132.7 150.521C1168.7 150.231 1198.54 163.435 1222.23 190.133L1220.71 1.46746L1319.83 0.669299L1324.06 525.652L1234.85 526.371L1229.75 487.104C1205.39 518.063 1173.84 533.698 1135.1 534.01C1091.58 534.36 1056.47 517.553 1029.76 483.587C1003.28 449.392 989.796 401.761 989.304 340.695ZM1088.14 347.077C1088.42 381.712 1094.67 408.208 1106.89 426.568C1119.12 444.927 1136.74 454.014 1159.75 453.828C1190.28 453.583 1211.71 440.535 1224.04 414.686L1222.86 268.744C1210.35 243.095 1188.94 230.393 1158.64 230.637C1111.02 231.02 1087.52 269.834 1088.14 347.077ZM1633.88 529.994C1579.65 530.43 1535.31 514.153 1500.86 481.161C1466.65 448.167 1449.31 403.985 1448.87 348.616L1448.79 339.046C1448.49 301.905 1455.4 268.694 1469.52 239.413C1483.64 209.904 1503.74 187.183 1529.81 171.25C1556.12 155.087 1586.13 146.87 1619.85 146.598C1670.44 146.191 1710.33 161.82 1739.52 193.487C1768.94 225.153 1783.89 270.265 1784.36 328.824L1784.69 369.155L1549.2 371.051C1552.58 395.178 1562.31 414.469 1578.38 428.924C1594.67 443.376 1615.12 450.503 1639.73 450.305C1677.78 449.999 1707.41 435.974 1728.6 408.231L1777.58 462.184C1762.93 483.266 1743.01 499.833 1717.82 511.885C1692.62 523.71 1664.64 529.746 1633.88 529.994ZM1620.16 226.579C1600.56 226.736 1584.66 233.473 1572.47 246.787C1560.5 260.1 1552.9 279.075 1549.68 303.711L1687.08 302.605L1687.02 294.744C1686.38 272.873 1680.32 256.059 1668.84 244.302C1657.35 232.318 1641.12 226.41 1620.16 226.579ZM2104.77 417.165C2104.68 405.088 2098.56 395.681 2086.43 388.943C2074.53 381.974 2055.34 375.862 2028.86 370.607C1940.76 352.859 1896.48 315.844 1896.03 259.563C1895.76 226.752 1909.1 199.3 1936.04 177.207C1963.2 154.885 1998.78 143.547 2042.75 143.193C2089.69 142.815 2127.26 153.564 2155.47 175.44C2183.9 197.315 2198.26 225.911 2198.54 261.229L2099.77 262.024C2099.65 247.897 2095 236.313 2085.81 227.272C2076.62 218.004 2062.34 213.447 2042.98 213.603C2026.34 213.737 2013.5 217.6 2004.45 225.193C1995.39 232.786 1990.91 242.392 1991.01 254.013C1991.09 264.95 1996.29 273.795 2006.6 280.549C2017.14 287.072 2034.73 292.741 2059.38 297.556C2084.02 302.143 2104.8 307.444 2121.71 313.461C2174.05 332.181 2200.4 365.124 2200.78 412.29C2201.05 446.013 2186.81 473.472 2158.04 494.668C2129.27 515.636 2091.98 526.305 2046.18 526.673C2015.19 526.923 1987.58 521.676 1963.34 510.934C1939.32 499.961 1920.4 484.96 1906.58 465.93C1892.75 446.673 1885.75 425.879 1885.57 403.549L1979.22 402.795C1980.27 420.332 1986.87 433.724 1999.02 442.968C2011.17 452.213 2027.39 456.754 2047.67 456.591C2066.58 456.439 2080.79 452.792 2090.31 445.651C2100.05 438.281 2104.87 428.786 2104.77 417.165ZM2443.1 55.884L2443.83 146.799L2507.06 146.29L2507.64 218.748L2444.41 219.258L2445.9 403.822C2446.01 417.493 2448.71 427.27 2454 433.152C2459.29 439.034 2469.34 441.916 2484.15 441.796C2495.08 441.708 2504.76 440.833 2513.18 439.17L2513.78 514.021C2494.46 520.101 2474.55 523.224 2454.04 523.389C2384.77 523.947 2349.17 489.255 2347.24 419.314L2345.64 220.053L2291.64 220.488L2291.05 148.029L2345.06 147.594L2344.32 56.6794L2443.1 55.884ZM2833.64 236.29C2820.18 234.575 2808.32 233.759 2798.07 233.842C2760.7 234.143 2736.31 246.986 2724.89 272.372L2726.84 514.356L2628.06 515.152L2625.09 145.339L2718.39 144.588L2721.48 188.656C2741.03 154.546 2768.35 137.35 2803.44 137.067C2814.38 136.979 2824.65 138.377 2834.24 141.263L2833.64 236.29ZM3167.89 473.206C3143.75 503.023 3110.15 518.106 3067.08 518.453C3027.44 518.772 2997.04 507.623 2975.89 485.006C2954.97 462.387 2944.11 429.092 2943.3 385.119L2941.35 142.793L3040.12 141.997L3042.05 380.906C3042.36 419.413 3060.06 438.526 3095.15 438.243C3128.64 437.974 3151.56 426.168 3163.91 402.825L3161.8 141.017L3260.92 140.219L3263.9 510.032L3170.93 510.78L3167.89 473.206ZM3554.62 434.885C3572.85 434.739 3587.62 429.606 3598.93 419.489C3610.24 409.372 3616.06 395.994 3616.38 379.357L3709.01 378.611C3708.98 403.677 3702.33 426.746 3689.06 447.817C3675.78 468.66 3657.45 484.987 3634.08 496.796C3610.93 508.376 3585.22 514.28 3556.97 514.508C3504.11 514.933 3462.28 498.522 3431.47 465.272C3400.67 431.796 3385.03 385.436 3384.55 326.193L3384.5 319.699C3384.04 262.734 3398.83 217.155 3428.86 182.96C3458.89 148.765 3500.34 131.455 3553.2 131.03C3599.45 130.657 3636.59 143.575 3664.6 169.782C3692.84 195.76 3707.36 230.621 3708.17 274.366L3615.54 275.112C3614.93 255.976 3608.88 240.529 3597.4 228.773C3585.91 216.788 3570.82 210.871 3552.13 211.021C3529.12 211.206 3511.76 219.778 3500.04 236.734C3488.56 253.462 3482.97 280.623 3483.27 318.22L3483.35 328.473C3483.66 366.526 3489.69 393.822 3501.44 410.362C3513.2 426.902 3530.92 435.076 3554.62 434.885ZM3943.98 43.798L3944.71 134.713L4007.94 134.204L4008.52 206.662L3945.29 207.172L3946.78 391.736C3946.89 405.407 3949.59 415.184 3954.88 421.066C3960.16 426.948 3970.21 429.83 3985.02 429.71C3995.96 429.622 4005.64 428.747 4014.06 427.084L4014.66 501.935C3995.34 508.015 3975.43 511.138 3954.92 511.303C3885.65 511.861 3850.05 477.169 3848.12 407.228L3846.52 207.967L3792.51 208.402L3791.93 135.943L3845.93 135.508L3845.2 44.5934L3943.98 43.798Z" fill="#F1F1F1"/>
</svg>
