<svg width="150" height="60" viewBox="0 0 150 60" fill="none" xmlns="http://www.w3.org/2000/svg">
<g clip-path="url(#clip0)">
<path d="M2.13647 58.6345L132.202 58.8613" stroke="#FE4066" stroke-width="5" stroke-linecap="round"/>
<path d="M4.86133 24.0482V57.7545" stroke="#FE4066" stroke-width="4" stroke-linecap="round"/>
<path d="M0.57251 29.2775L20.9971 0.945167" stroke="#FE4066" stroke-width="3"/>
<path d="M40.095 28.8868L20.6986 1.72412" stroke="#FE4066" stroke-width="3"/>
<path d="M49.3601 27.7551L29.9637 0.592394" stroke="#FE4066"/>
<path d="M44.9393 27.8929L25.5429 0.730209" stroke="#FE4066" stroke-width="2"/>
<g filter="url(#filter0_i)">
<path d="M19.9951 14.1508H14.9163V20.999H19.9951V14.1508Z" fill="#2B88D8"/>
</g>
<g filter="url(#filter1_i)">
<path d="M26.3435 22.2831H21.2646V29.1313H26.3435V22.2831Z" fill="#2B88D8"/>
</g>
<g filter="url(#filter2_i)">
<path d="M26.3435 14.1508H21.2646V20.999H26.3435V14.1508Z" fill="#FE4066"/>
</g>
<g filter="url(#filter3_i)">
<path d="M19.9951 22.2831H14.9163V29.1313H19.9951V22.2831Z" fill="#FE4066"/>
</g>
<g filter="url(#filter4_d)">
<path d="M14.1938 36.9053L18.528 48.6241L22.8391 36.9053H27.4052V53.0632H23.9169V48.6464L24.2646 41.0224L19.7101 53.0632H17.3228L12.7799 41.0335L13.1276 48.6464V53.0632H9.65088V36.9053H14.1938ZM37.4876 53.0632C37.3331 52.7746 37.221 52.4155 37.1515 51.9864C36.3403 52.8523 35.2857 53.285 33.9877 53.285C32.7593 53.285 31.7394 52.9446 30.9282 52.2641C30.1247 51.5832 29.723 50.725 29.723 49.6896C29.723 48.4168 30.2136 47.4405 31.1948 46.7596C32.1837 46.0791 33.6091 45.735 35.4711 45.7277H37.0124V45.0396C37.0124 44.4848 36.8618 44.0409 36.5605 43.708C36.2669 43.375 35.7994 43.2086 35.1582 43.2086C34.5942 43.2086 34.15 43.3381 33.8255 43.597C33.5087 43.8559 33.3503 44.211 33.3503 44.6623H30.0011C30.0011 43.9669 30.2251 43.3232 30.6733 42.7314C31.1214 42.1395 31.7549 41.6771 32.5739 41.3442C33.3928 41.0039 34.3122 40.8337 35.332 40.8337C36.8772 40.8337 38.1018 41.2074 39.0057 41.9546C39.9174 42.6944 40.3732 43.7376 40.3732 45.084V50.2886C40.3809 51.4282 40.547 52.29 40.8715 52.8741V53.0632H37.4876ZM34.7178 50.8323C35.2123 50.8323 35.6681 50.7286 36.0853 50.5218C36.5025 50.3073 36.8116 50.0223 37.0124 49.6673V47.6032H35.7608C34.0843 47.6032 33.1919 48.1582 33.0838 49.2677L33.0722 49.4564C33.0722 49.8559 33.219 50.185 33.5126 50.4441C33.8062 50.7027 34.2079 50.8323 34.7178 50.8323ZM42.4245 46.9705C42.4245 45.0988 42.861 43.6081 43.734 42.4983C44.6148 41.3886 45.8162 40.8337 47.3382 40.8337C48.5587 40.8337 49.5674 41.2702 50.3629 42.1432V36.0175H53.7237V53.0632H50.699L50.5367 51.7868C49.7022 52.7855 48.6284 53.285 47.315 53.285C45.8393 53.285 44.6534 52.73 43.7572 51.6205C42.8687 50.5032 42.4245 48.9532 42.4245 46.9705ZM45.7737 47.2036C45.7737 48.3282 45.9784 49.19 46.3879 49.7891C46.7974 50.3886 47.3923 50.6882 48.1727 50.6882C49.208 50.6882 49.9381 50.27 50.3629 49.4341V44.6956C49.9457 43.8596 49.2232 43.4416 48.196 43.4416C46.581 43.4416 45.7737 44.6956 45.7737 47.2036ZM62.0909 53.285C60.252 53.285 58.7534 52.745 57.5943 51.6646C56.4432 50.5846 55.8678 49.1455 55.8678 47.3477V47.0373C55.8678 45.8314 56.1109 44.7548 56.5979 43.8078C57.0845 42.8535 57.7723 42.1211 58.6604 41.6106C59.5566 41.0927 60.5767 40.8337 61.7202 40.8337C63.4352 40.8337 64.7833 41.3516 65.7645 42.3874C66.7538 43.4231 67.2479 44.8916 67.2479 46.7932V48.1023H59.2632C59.3715 48.8868 59.6957 49.5155 60.2368 49.9891C60.7851 50.4623 61.4767 50.6991 62.3112 50.6991C63.6014 50.6991 64.6096 50.2518 65.3359 49.3564L66.9816 51.1209C66.4794 51.8014 65.7992 52.3341 64.9419 52.7191C64.0841 53.0964 63.1338 53.285 62.0909 53.285ZM61.7083 43.4305C61.0443 43.4305 60.5031 43.6451 60.0859 44.0741C59.6767 44.5032 59.4137 45.1173 59.2979 45.9164H63.9569V45.6609C63.9413 44.9508 63.7405 44.4034 63.3541 44.0187C62.9677 43.6266 62.4194 43.4305 61.7083 43.4305ZM75.9512 49.745C75.9512 49.3527 75.7466 49.0459 75.337 48.8236C74.9354 48.5946 74.2865 48.3909 73.3903 48.2136C70.4079 47.6141 68.9169 46.4009 68.9169 44.5736C68.9169 43.5082 69.3764 42.6204 70.2958 41.9102C71.2229 41.1926 72.4319 40.8337 73.9234 40.8337C75.515 40.8337 76.7857 41.1926 77.736 41.9102C78.694 42.6278 79.1729 43.56 79.1729 44.7067H75.824C75.824 44.248 75.6693 43.8707 75.3602 43.5748C75.0512 43.2715 74.5685 43.1198 73.9115 43.1198C73.3476 43.1198 72.9114 43.2419 72.6023 43.486C72.2928 43.7301 72.1386 44.0409 72.1386 44.4182C72.1386 44.7733 72.3123 45.0618 72.6602 45.2838C73.0153 45.4982 73.6106 45.6868 74.4446 45.8496C75.2791 46.005 75.9821 46.1827 76.5541 46.3823C78.3232 47.0036 79.208 48.0805 79.208 49.6118C79.208 50.7068 78.7172 51.5946 77.736 52.275C76.7549 52.9482 75.4879 53.285 73.9348 53.285C72.8843 53.285 71.9492 53.1073 71.1303 52.7523C70.3191 52.3896 69.6816 51.8977 69.2183 51.2764C68.7546 50.6473 68.5229 49.9705 68.5229 49.2455H71.6981C71.7289 49.815 71.9492 50.2518 72.3588 50.555C72.768 50.8582 73.3167 51.01 74.0045 51.01C74.6458 51.01 75.1286 50.8955 75.4528 50.6659C75.7851 50.4291 75.9512 50.1223 75.9512 49.745ZM85.3846 38.1038V41.0557H87.5288V43.4083H85.3846V49.4009C85.3846 49.8446 85.4734 50.1627 85.6514 50.355C85.8289 50.5477 86.1688 50.6436 86.671 50.6436C87.0417 50.6436 87.3702 50.6177 87.656 50.5659V52.9964C86.9995 53.1886 86.3235 53.285 85.6281 53.285C83.2794 53.285 82.0818 52.1491 82.0357 49.8782V43.4083H80.2044V41.0557H82.0357V38.1038H85.3846ZM96.4405 44.0631C95.9848 44.0039 95.5832 43.9743 95.2352 43.9743C93.9683 43.9743 93.1376 44.3849 92.7436 45.2061V53.0632H89.3947V41.0557H92.5585L92.6511 42.4872C93.3232 41.3849 94.2541 40.8337 95.4441 40.8337C95.8148 40.8337 96.1623 40.8818 96.487 40.978L96.4405 44.0631ZM105.573 51.8423C104.746 52.8041 103.602 53.285 102.142 53.285C100.798 53.285 99.7704 52.915 99.0598 52.175C98.3568 51.4355 97.9974 50.3514 97.9818 48.9236V41.0557H101.331V48.8127C101.331 50.0632 101.926 50.6882 103.116 50.6882C104.251 50.6882 105.032 50.3109 105.457 49.5564V41.0557H108.817V53.0632H105.665L105.573 51.8423ZM116.559 50.6991C117.177 50.6991 117.679 50.5364 118.066 50.2109C118.452 49.8855 118.653 49.4527 118.668 48.9127H121.809C121.801 49.7264 121.569 50.4736 121.114 51.1541C120.658 51.8273 120.032 52.3527 119.236 52.73C118.448 53.1 117.575 53.285 116.617 53.285C114.824 53.285 113.411 52.7414 112.376 51.6536C111.34 50.5586 110.822 49.0496 110.822 47.1259V46.915C110.822 45.0655 111.336 43.5896 112.364 42.4872C113.391 41.3849 114.801 40.8337 116.594 40.8337C118.162 40.8337 119.418 41.2628 120.36 42.1211C121.311 42.9718 121.793 44.1075 121.809 45.5277H118.668C118.653 44.9065 118.452 44.4034 118.066 44.0187C117.679 43.6266 117.169 43.4305 116.536 43.4305C115.755 43.4305 115.164 43.7042 114.763 44.2517C114.369 44.7918 114.172 45.6723 114.172 46.8927V47.2259C114.172 48.4614 114.369 49.3491 114.763 49.8891C115.157 50.4291 115.755 50.6991 116.559 50.6991ZM127.731 38.1038V41.0557H129.875V43.4083H127.731V49.4009C127.731 49.8446 127.819 50.1627 127.997 50.355C128.175 50.5477 128.515 50.6436 129.017 50.6436C129.388 50.6436 129.716 50.6177 130.002 50.5659V52.9964C129.346 53.1886 128.67 53.285 127.974 53.285C125.625 53.285 124.428 52.1491 124.382 49.8782V43.4083H122.55V41.0557H124.382V38.1038H127.731Z" fill="black"/>
</g>
</g>
<defs>
<filter id="filter0_i" x="14.9163" y="14.1508" width="5.07882" height="6.84814" filterUnits="userSpaceOnUse" color-interpolation-filters="sRGB">
<feFlood flood-opacity="0" result="BackgroundImageFix"/>
<feBlend mode="normal" in="SourceGraphic" in2="BackgroundImageFix" result="shape"/>
<feColorMatrix in="SourceAlpha" type="matrix" values="0 0 0 0 0 0 0 0 0 0 0 0 0 0 0 0 0 0 127 0" result="hardAlpha"/>
<feOffset/>
<feGaussianBlur stdDeviation="2.5"/>
<feComposite in2="hardAlpha" operator="arithmetic" k2="-1" k3="1"/>
<feColorMatrix type="matrix" values="0 0 0 0 0.168627 0 0 0 0 0.533333 0 0 0 0 0.847059 0 0 0 1 0"/>
<feBlend mode="normal" in2="shape" result="effect1_innerShadow"/>
</filter>
<filter id="filter1_i" x="21.2646" y="22.2831" width="5.07883" height="6.84813" filterUnits="userSpaceOnUse" color-interpolation-filters="sRGB">
<feFlood flood-opacity="0" result="BackgroundImageFix"/>
<feBlend mode="normal" in="SourceGraphic" in2="BackgroundImageFix" result="shape"/>
<feColorMatrix in="SourceAlpha" type="matrix" values="0 0 0 0 0 0 0 0 0 0 0 0 0 0 0 0 0 0 127 0" result="hardAlpha"/>
<feOffset/>
<feGaussianBlur stdDeviation="2.5"/>
<feComposite in2="hardAlpha" operator="arithmetic" k2="-1" k3="1"/>
<feColorMatrix type="matrix" values="0 0 0 0 0.168627 0 0 0 0 0.533333 0 0 0 0 0.847059 0 0 0 1 0"/>
<feBlend mode="normal" in2="shape" result="effect1_innerShadow"/>
</filter>
<filter id="filter2_i" x="21.2646" y="14.1508" width="5.07883" height="6.84814" filterUnits="userSpaceOnUse" color-interpolation-filters="sRGB">
<feFlood flood-opacity="0" result="BackgroundImageFix"/>
<feBlend mode="normal" in="SourceGraphic" in2="BackgroundImageFix" result="shape"/>
<feColorMatrix in="SourceAlpha" type="matrix" values="0 0 0 0 0 0 0 0 0 0 0 0 0 0 0 0 0 0 127 0" result="hardAlpha"/>
<feOffset/>
<feGaussianBlur stdDeviation="2"/>
<feComposite in2="hardAlpha" operator="arithmetic" k2="-1" k3="1"/>
<feColorMatrix type="matrix" values="0 0 0 0 0.996078 0 0 0 0 0.25098 0 0 0 0 0.4 0 0 0 1 0"/>
<feBlend mode="normal" in2="shape" result="effect1_innerShadow"/>
</filter>
<filter id="filter3_i" x="14.9163" y="22.2831" width="5.07882" height="6.84813" filterUnits="userSpaceOnUse" color-interpolation-filters="sRGB">
<feFlood flood-opacity="0" result="BackgroundImageFix"/>
<feBlend mode="normal" in="SourceGraphic" in2="BackgroundImageFix" result="shape"/>
<feColorMatrix in="SourceAlpha" type="matrix" values="0 0 0 0 0 0 0 0 0 0 0 0 0 0 0 0 0 0 127 0" result="hardAlpha"/>
<feOffset/>
<feGaussianBlur stdDeviation="2"/>
<feComposite in2="hardAlpha" operator="arithmetic" k2="-1" k3="1"/>
<feColorMatrix type="matrix" values="0 0 0 0 0.996078 0 0 0 0 0.25098 0 0 0 0 0.4 0 0 0 1 0"/>
<feBlend mode="normal" in2="shape" result="effect1_innerShadow"/>
</filter>
<filter id="filter4_d" x="5.65088" y="36.0175" width="128.351" height="25.2675" filterUnits="userSpaceOnUse" color-interpolation-filters="sRGB">
<feFlood flood-opacity="0" result="BackgroundImageFix"/>
<feColorMatrix in="SourceAlpha" type="matrix" values="0 0 0 0 0 0 0 0 0 0 0 0 0 0 0 0 0 0 127 0" result="hardAlpha"/>
<feOffset dy="4"/>
<feGaussianBlur stdDeviation="2"/>
<feComposite in2="hardAlpha" operator="out"/>
<feColorMatrix type="matrix" values="0 0 0 0 0 0 0 0 0 0 0 0 0 0 0 0 0 0 0.25 0"/>
<feBlend mode="normal" in2="BackgroundImageFix" result="effect1_dropShadow"/>
<feBlend mode="normal" in="SourceGraphic" in2="effect1_dropShadow" result="shape"/>
</filter>
<clipPath id="clip0">
<rect width="150" height="60" fill="white"/>
</clipPath>
</defs>
</svg>
