<svg width="18" height="18" viewBox="0 0 18 18" fill="none" xmlns="http://www.w3.org/2000/svg">
<path d="M7.07098 0C8.72348 0 10.3083 0.684819 11.4768 1.90381C12.6453 3.12279 13.3017 4.77609 13.3017 6.5C13.3017 8.11 12.7362 9.59 11.8064 10.73L12.0652 11H12.8225L17.6154 16L16.1775 17.5L11.3846 12.5V11.71L11.1258 11.44C9.99517 12.4468 8.55746 12.9999 7.07098 13C5.41848 13 3.83366 12.3152 2.66516 11.0962C1.49666 9.87721 0.84021 8.22391 0.84021 6.5C0.84021 4.77609 1.49666 3.12279 2.66516 1.90381C3.83366 0.684819 5.41848 0 7.07098 0ZM7.07098 2C4.67453 2 2.75737 4 2.75737 6.5C2.75737 9 4.67453 11 7.07098 11C9.46743 11 11.3846 9 11.3846 6.5C11.3846 4 9.46743 2 7.07098 2Z" fill="#FAFAFA"/>
</svg>
