<svg width="119" height="99" viewBox="0 0 119 99" fill="none" xmlns="http://www.w3.org/2000/svg">
<path d="M95.0948 53.5761V36.5097L84.5985 31.4019V58.6848L95.0948 53.5761Z" fill="#CFD0D2"/>
<path d="M79.9224 59.4109V30.6759L69.4263 25.5672V64.5178L79.9224 59.4109Z" fill="#CFD0D2"/>
<path d="M49.5777 71.0784V19.0088L39.0815 13.8992V76.1853L49.5777 71.0784Z" fill="#CFD0D2"/>
<path d="M110.267 47.7432V42.3437L99.7709 37.235V52.8501L110.267 47.7432Z" fill="#CFD0D2"/>
<path d="M119 45.0432L114.943 43.069V47.0173L119 45.0432Z" fill="#CFD0D2"/>
<path d="M34.4053 76.9113V13.174L23.9071 8.06617V82.02L34.4053 76.9113Z" fill="#CFD0D2"/>
<path d="M64.7501 65.2436V24.8418L54.2538 19.734V70.3523L64.7501 65.2436Z" fill="#CFD0D2"/>
<path d="M0 90.5532L4.05675 88.5791V1.5062L0.961404 -8.39233e-05L0 90.5532Z" fill="#CFD0D2"/>
<path d="M19.231 82.7457V7.34065L8.73279 2.23103V87.8535L19.231 82.7457Z" fill="#CFD0D2"/>
<path d="M16.0279 19.2911L115.776 58.2906L16.5653 98.2852L16.0279 19.2911Z" fill="#6CBCE4"/>
</svg>
