<svg width="24" height="24" viewBox="0 0 24 24" fill="none" xmlns="http://www.w3.org/2000/svg">
<path d="M23.6435 4.937C22.8085 5.307 21.9115 5.557 20.9685 5.67C21.9415 5.08779 22.6694 4.17147 23.0165 3.092C22.1023 3.63499 21.1018 4.0172 20.0585 4.222C19.3569 3.47287 18.4276 2.97633 17.4148 2.80947C16.4021 2.64262 15.3626 2.81479 14.4577 3.29925C13.5529 3.78371 12.8333 4.55336 12.4107 5.4887C11.988 6.42405 11.886 7.47275 12.1205 8.472C10.2682 8.379 8.45613 7.89755 6.80192 7.05891C5.14772 6.22026 3.68834 5.04316 2.5185 3.604C2.1185 4.294 1.8885 5.094 1.8885 5.946C1.88805 6.713 2.07693 7.46824 2.43838 8.14473C2.79982 8.82122 3.32266 9.39804 3.9605 9.824C3.22078 9.80046 2.49737 9.60058 1.8505 9.241V9.301C1.85043 10.3767 2.22253 11.4194 2.90368 12.252C3.58483 13.0846 4.53307 13.6559 5.5875 13.869C4.90128 14.0547 4.18184 14.0821 3.4835 13.949C3.781 14.8746 4.3605 15.684 5.14087 16.2639C5.92124 16.8438 6.86342 17.1652 7.8355 17.183C6.18533 18.4784 4.14739 19.1811 2.0495 19.178C1.67788 19.1781 1.30658 19.1564 0.9375 19.113C3.06698 20.4822 5.54584 21.2088 8.0775 21.206C16.6475 21.206 21.3325 14.108 21.3325 7.952C21.3325 7.752 21.3275 7.55 21.3185 7.35C22.2298 6.69097 23.0164 5.8749 23.6415 4.94L23.6435 4.937V4.937Z" fill="white"/>
</svg>
